<?xml version="1.0" encoding="utf-8"?>
<!-- Generator: Adobe Illustrator 26.2.1, SVG Export Plug-In . SVG Version: 6.00 Build 0)  -->
<svg version="1.1" id="Capa_1" xmlns="http://www.w3.org/2000/svg" xmlns:xlink="http://www.w3.org/1999/xlink" x="0px" y="0px"
	 viewBox="0 0 2353 2353" style="enable-background:new 0 0 2353 2353;" xml:space="preserve">
<style type="text/css">
	.st0{fill:#1D1D1B;}
</style>
<g transform="translate(0.000000,2353.000000) scale(0.100000,-0.100000)">
	<path class="st0" d="M11405,23523c-3331-110-6403-1581-8570-4103C740,16982-258,13805,61,10590c191-1929,858-3779,1940-5385
		c437-649,885-1191,1449-1755c589-590,1136-1037,1825-1495c736-489,1533-897,2340-1200c1621-607,3315-849,5045-720
		c2404,180,4694,1099,6564,2634c1281,1052,2327,2361,3067,3841c1401,2803,1623,6061,616,9035c-179,527-356,951-613,1465
		c-356,713-723,1299-1220,1947c-493,642-1147,1319-1792,1855c-1408,1172-3077,2001-4852,2412C13447,23451,12390,23556,11405,23523z
		 M12365,22759c1324-69,2631-381,3840-915c2083-920,3836-2468,5008-4422c788-1313,1283-2745,1477-4267c22-175,61-577,56-582
		c-1-2-9,16-16,39c-33,113-123,251-224,345c-212,199-486,291-831,280c-404-13-760-163-1180-495l-100-79l-3,288l-2,289h-147h-146
		l-111-59c-240-128-383-173-651-206l-130-17l-82-81l-83-82v-182v-183h279h279l3-1022c2-563,2-1051,1-1085c-3-53-7-62-25-67
		c-12-4-101-9-197-12l-175-6l-82-81l-83-82v-182v-183h902h903l82,82l83,83v182v183h-127c-158,0-282,14-324,36c-48,24-88,73-106,129
		c-14,44-17,155-23,915c-5,609-4,869,3,878c20,25,217,150,315,200c223,114,413,164,622,165c204,1,327-41,441-149
		c103-99,140-198,159-428c11-141,13-1588,2-1670c-9-63-15-65-237-73l-170-5l-82-81l-83-82v-182v-183h590c587,0,590,0,590-20
		c0-38-81-401-145-655c-259-1023-672-2011-1228-2940c-114-191-404-628-537-810c-679-928-1497-1746-2425-2425
		c-182-133-619-423-810-537c-1905-1141-4062-1674-6280-1552c-1793,98-3508,623-5047,1546C4154,3489,2606,5242,1686,7325
		c-404,914-695,1937-826,2900c-6,44-13,96-16,115c-6,33-2,31,103-70c422-409,909-617,1488-637c508-17,1069,132,1489,395l96,61l18-42
		c10-23,47-108,82-190l65-147h200h200l83,83l83,84l2,936c2,733,5,939,14,948s67,14,195,17l183,4l83,81l82,82v182v183h-982h-983
		l-82-82l-83-83v-182v-183h93c50,0,152-5,226-10c164-13,211-31,280-106c90-98,105-193,98-602c-5-311-13-370-64-464
		c-31-57-109-111-268-188c-212-101-365-139-600-147c-305-11-557,51-827,203c-483,272-823,805-923,1444c-22,143-31,465-16,615
		c39,396,175,760,396,1055c81,109,148,174,249,242c221,147,451,222,721,235c461,22,877-165,1182-529c107-128,226-316,326-515
		c52-103,96-195,99-203c4-12,37-4,184,45l179,60l92,90l91,90l-164,610c-90,336-180,672-200,748l-37,137h-151h-151l-87-87
		c-49-48-88-92-88-98c0-5-4-16-9-24c-7-11-20-7-67,22c-464,279-1164,343-1739,160c-348-111-626-282-928-573c-65-62-117-107-117-102
		c0,25,64,320,111,511c601,2453,2054,4649,4084,6172c1760,1321,3846,2078,6030,2189C11576,22780,11976,22780,12365,22759z"/>
	<path class="st0" d="M9229,20591c-103-37-121-50-237-172c-117-124-121-136-98-260l16-83l-39-41c-52-54-73-98-74-160l-2-53l-94-15
		l-95-16l-82-82c-58-57-85-78-88-68c-3,8-39,106-79,219l-74,205l-123,3l-123,3l-67-66l-68-65l-1028,2l-1028,3l-8,40
		c-19,94-3,85-141,85h-122l-84-84l-84-85l-198-568c-109-312-195-571-191-574s74-30,156-58l149-53l88,88c48,48,91,99,94,113
		c13,52,116,255,170,337c61,90,104,127,208,174c105,47,195,63,389,68l176,4l16-24c14-21,16-171,16-1442c1-780-2-1421-5-1425
		c-4-3-66-7-138-9l-132-3l-87-87l-88-87v-152v-153h742h743l87,87l88,88v151v151l-152,6c-84,3-170,11-190,17c-51,15-94,67-107,130
		c-8,36-13,470-18,1403l-6,1350l119-6c295-14,515-140,680-387c63-95,184-334,184-363c0-9,4-18,9-21c5-4,78,19,163,49l153,55l84,84
		l85,85l-121,333c-66,183-119,335-117,337c5,6,132-67,192-111c106-78,146-126,169-203c41-130,74-372,105-750c20-241,16-885-5-1105
		c-20-196-95-695-135-899l-27-134l-145-84c-115-67-162-102-227-166c-46-45-83-85-83-89c0-5,298-8,663-8h662l88,88
		c62,63,90,99,98,126c6,21,9,39,7,40c-2,2-60,33-130,70c-140,73-180,103-206,150c-35,64-26,853,13,1194c20,169,41,253,85,348l37,80
		l78,23c63,19,94,23,164,19c130-7,207-52,258-152c52-102,55-146,62-891l6-690l34-70c25-50,57-92,112-146c161-160,280-181,604-107
		l90,20l83,81c81,80,89,96,76,144c-5,19-15,23-72,28c-104,10-144,24-178,60c-56,60-56,62-64,800c-10,869-18,952-116,1154
		c-36,74-61,109-122,171c-119,119-245,170-428,170c-228,0-405-89-646-328c-59-58-109-104-111-101c-3,2-12,92-21,199
		c-26,306-64,648-86,772c-11,62-45,196-75,297l-56,184l70,71c56,56,75,83,91,130c11,33,20,68,20,79c0,15,5,18,24,15
		c20-4,40,11,110,81l85,86l-30,65c-17,36-42,77-57,93c-51,53-130,56-210,7c-38-24-43-24-36-6c10,27,41,216,35,215
		C9308,20619,9271,20607,9229,20591z"/>
	<path class="st0" d="M12547,18879c-234-20-434-89-617-212c-95-64-372-335-456-447c-117-156-201-358-240-575c-22-124-25-433-6-545
		c52-299,157-513,347-709c263-271,562-393,960-394c310,0,504,66,755,256c97,73,414,382,508,494l52,61l-117,95l-118,96l-120-118
		c-142-139-258-227-369-281c-117-57-182-72-332-77c-154-6-248,13-370,73c-255,126-441,476-456,859l-3,80l840,3l840,2l83,83l84,82
		l-6,115c-13,264-84,470-228,661c-183,243-431,371-775,399c-69,5-135,9-147,9C12644,18888,12595,18884,12547,18879z M12669,18365
		c135-35,265-136,321-247c16-34,30-67,30-75c0-11-88-13-495-13c-465,0-495,1-495,18c0,9,22,62,49,118c60,125,90,149,246,195
		C12401,18383,12592,18386,12669,18365z"/>
	<path class="st0" d="M15378,15705c-118-33-228-76-286-114c-27-17-98-82-159-144c-114-116-129-143-148-252l-7-40l-27,70
		c-68,174-123,243-211,269c-86,25-184,36-320,36h-125l-83-83l-82-83l45-109c110-263,169-321,395-393c52-16,139-40,193-52l98-23
		l64,63c36,35,67,61,71,57c8-7,9-6-96-132c-41-49-93-117-115-150c-46-69-125-223-125-242c0-11-12-12-52-6c-29,4-107,7-173,7
		c-140-2-226-21-369-84c-80-35-102-51-175-124c-76-77-82-85-64-94c47-25,265-84,340-92c103-11,137-30,168-95c36-76,45-168,52-554
		c6-346,6-354-13-346c-156,66-263,87-439,87c-294,1-538-76-770-240c-98-70-382-356-475-477c-198-260-320-525-387-840
		c-25-120-27-148-28-370c0-251,6-305,51-485c63-255,178-467,355-654c170-180,373-306,584-363c91-25,116-27,285-27
		c201,0,242,6,402,64c137,50,271,137,409,267l66,63l33-63c170-325,381-415,630-270c75,45,339,297,437,418c61,76,203,278,203,289
		c0,2-53-14-117-36c-85-30-140-43-195-46c-78-5-228,12-260,29c-64,34-138,306-197,724c-94,660-105,1369-36,2150
		c42,465,145,1150,241,1594l25,114l170,165c184,179,203,205,252,357c26,79,77,263,77,278C15490,15734,15474,15731,15378,15705z
		 M13634,12615c92-19,196-69,239-113c70-73,146-242,211-472c43-152,54-265,63-635c11-492-32-813-142-1052c-18-39-43-76-55-83
		c-69-37-234-28-356,19c-143,56-311,194-417,343c-175,245-258,596-244,1033c9,278,50,480,133,654c66,140,101,189,158,225
		C13360,12620,13490,12645,13634,12615z"/>
	<path class="st0" d="M6586,13239c-195-21-361-65-491-132c-66-34-105-66-223-182c-160-156-231-251-262-351c-57-187,19-442,167-555
		c85-65,261-91,368-54c72,25,117,60,230,176c74,77,104,115,113,145c16,55,15,166-3,239c-8,33-14,64-15,69c0,16,249-1,333-23
		c127-33,209-82,317-191c156-155,224-276,255-456c14-81,21-234,10-234c-2,0-28,14-57,31s-85,44-124,60c-331,133-845,78-1188-128
		c-175-105-471-379-564-523c-148-228-179-588-72-842c105-252,377-440,730-505c143-26,392-23,538,6c269,53,496,161,659,314l52,49
		l22-44c41-81,92-163,144-228c84-105,191-150,360-150c105,0,180,19,240,60c22,15,90,79,151,141c102,105,142,163,167,241
		c5,14,12,11,42-18c72-67,182-76,293-22c51,24,299,255,371,345c49,62,186,281,180,288c-2,1-38-10-79-27c-110-43-243-77-342-87
		c-125-12-162-34-302-176c-84-86-117-113-112-95c3,14,6,30,6,37c0,6,6,18,14,26c18,17,88,428,88,514c1,80-44,176-130,285l-61,76
		l-94-96c-95-99-149-179-221-332c-54-114-72-198-57-265c18-79,82-160,195-247l95-73l-22-23c-34-36-76-54-127-54
		c-73,0-125,35-166,112c-37,68-20,476,52,1230c50,539,49,512,36,627c-43,387-217,664-525,836c-136,76-363,153-586,197
		C6881,13251,6735,13255,6586,13239z M6295,12520c-49-50-61-57-66-43c-3,10-4,32-2,50c4,26,11,33,42,41c20,6,47,10,61,11
		C6352,12580,6348,12574,6295,12520z M6925,11223c134-33,234-117,305-257c50-99,50-114-8-221c-38-70-38-70-139-121
		c-174-88-328-127-498-128c-126,0-203,18-277,66c-120,76-179,224-148,373c25,123,52,149,230,226C6584,11245,6756,11265,6925,11223z"
		/>
	<path class="st0" d="M10215,13171c-228-118-385-168-625-197l-135-16l-82-81l-83-82v-182v-183h283h284l6-632c13-1204,9-1510-22-1541
		c-6-6-89-12-193-15l-183-4l-87-86l-88-87v-177v-178h903h902l83,83l82,82v181v181l-177,6c-209,6-255,18-319,83c-82,81-78,34-82,1016
		l-3,867l77,61c217,173,375,243,505,225c57-8,170-62,282-133c92-59,154-76,248-70c111,8,163,40,315,192c143,144,173,190,181,287
		c10,108-27,208-109,295c-104,110-229,162-410,171c-192,10-372-36-596-152c-163-84-290-175-419-299l-103-99v277v276l-152-1l-153-1
		L10215,13171z"/>
	<path class="st0" d="M17175,13234c-139-19-193-29-279-51c-187-48-366-132-520-241c-91-64-383-350-470-459c-168-211-275-461-331-773
		c-22-125-31-452-16-589c44-403,184-717,440-983c319-334,678-489,1166-505c409-13,684,75,1015,327c147,112,515,476,629,622l21,26
		l-127,104c-71,57-134,108-141,112c-9,5-58-36-155-131c-309-302-551-435-838-462c-348-33-654,97-849,360c-171,230-263,519-285,897
		l-6,102h1093h1093l89,89l88,89l-7,108c-21,334-97,571-258,807c-199,291-474,465-847,533C17599,13231,17246,13244,17175,13234z
		 M17362,12655c159-33,338-151,418-275c31-49,89-182,90-207c0-10-142-13-680-13c-374,0-680,2-680,4s12,35,26,72
		c37,99,112,240,145,273c56,57,234,133,359,154C17103,12674,17294,12669,17362,12655z"/>
	<path class="st0" d="M7700,7779c-334-27-669-156-953-366c-124-92-424-390-526-523c-208-270-334-580-382-940c-18-134-15-430,6-565
		c54-360,187-669,403-936c97-120,281-290,399-369c313-210,629-302,1038-302c468,0,838,128,1215,421c109,84,433,402,517,506
		c35,44,85,110,110,148c40,58,45,69,32,81c-21,20-249,176-257,176c-13,0-186-182-232-243c-164-219-550-439-879-501
		c-107-21-321-21-437-1c-521,91-938,523-1068,1105c-53,240-60,554-16,790c39,215,129,440,246,615c81,123,152,184,304,260
		c165,83,319,119,515,118c195,0,331-31,490-110c181-90,355-244,463-408c42-64,266-493,283-542c3-8,52,2,165,34l161,45l82,82l81,81
		l-170,618c-93,339-172,628-176,642l-6,25h-127h-126l-79-79l-78-79l-122,59c-202,97-361,141-583,159C7862,7791,7837,7791,7700,7779z
		"/>
	<path class="st0" d="M14060,7775c-128-26-254-78-370-153c-89-58-373-344-439-443c-115-171-175-376-194-663l-2-38l-65-17
		c-95-24-144-57-262-179c-106-110-120-133-142-235c-6-25-4-27,16-22c93,21,123,25,199,25c138,0,225-34,303-120c45-50,69-101,93-196
		c25-103,22-417-6-629c-42-315-140-888-155-902c-9-10-89-22-143-23h-53v85c0,47-2,85-3,85c-2,0-30-9-61-20c-73-25-205-50-263-50
		c-79,0-133,20-178,65c-81,80-77,45-85,890c-7,705-8,756-28,842c-41,184-139,316-315,422c-394,240-1123,218-1530-45
		c-95-61-138-100-285-256c-140-149-191-236-218-372c-45-222,70-386,270-386c80,0,132,32,264,161c130,127,146,153,187,300
		c56,205,54,198,85,214c59,30,162,47,295,47c200-1,346-42,442-126c86-75,140-239,131-400l-3-60l-260-37c-588-84-901-172-1099-309
		c-94-65-351-327-398-405c-20-33-49-96-64-140c-37-108-40-264-7-370c62-195,237-375,443-454c129-50,218-65,390-64
		c316,1,574,89,903,310l138,93l11-31c71-205,258-338,518-370c113-13,227-6,380,25c61,12,113,18,116,14s343-8,756-8h751l88,87l89,87
		v87v87l-167,4c-188,5-241,19-301,81c-81,83-86,141-77,882c4,336,8,611,9,612s31-9,65-23c81-33,155-34,234-4c47,18,82,44,185,141
		c85,81,131,118,141,114c89-33,226-150,241-204c5-21,18-45,28-54c31-29,104-48,200-54l94-6l84,84c96,95,96,95,68,240
		c-33,175-105,259-221,259c-13,0-23,4-23,8c0,5,40,47,89,94c82,78,91,91,110,152c17,56,41,197,41,245c0,17-66,10-184-20
		c-114-29-170-61-265-153c-106-102-164-180-181-242c-7-27-17-54-22-61c-17-22-157-73-232-85c-148-23-266,20-383,138
		c-109,111-162,262-150,423c7,84,56,386,82,499c9,40,23,79,32,87c33,33,311,4,418-44c56-25,113-73,157-132c68-91,72-166,12-265
		l-34-56l23-28c12-16,26-29,30-29c15-1,179,90,242,134c33,24,110,94,171,156c92,95,114,123,129,168c43,131-24,276-179,386
		c-161,114-325,166-520,164C14180,7789,14096,7782,14060,7775z M11550,4860v-250l-47-30c-93-59-283-151-370-179
		c-126-41-214-54-328-49c-87,3-109,8-167,36c-82,40-147,103-185,180c-24,48-28,69-28,137c0,104,22,150,85,182c70,35,243,89,380,117
		c120,26,591,103,638,105l22,1V4860z"/>
	<path class="st0" d="M16447,6660c-121-12-231-35-335-71c-197-70-312-148-515-348c-238-234-330-367-401-581
		c-156-470-92-1000,161-1353c66-90,209-232,303-299c222-158,470-231,785-230c303,0,494,65,750,257c82,62,438,409,513,502l43,52
		l-103,82c-57,45-109,87-115,92c-9,6-44-21-120-91c-212-198-330-278-491-336c-84-30-93-31-252-31c-156,0-170,2-245,28
		c-192,68-328,193-429,395c-73,145-121,338-128,512l-3,75l840,3l840,2l83,83l84,82l-6,115c-9,203-50,359-137,518
		c-155,289-408,471-729,526C16726,6663,16555,6670,16447,6660z M16555,6148c82-17,190-75,250-135c50-50,115-157,115-190
		c0-11-88-13-496-13h-496l6,28c4,15,26,68,51,119c50,105,76,128,196,170C16296,6167,16430,6174,16555,6148z"/>
</g>
</svg>
